Coordinates
version=1
nRows=10
nColumns=63
inDegrees=yes

Units are S.I. units (second, meters, Newtons, ...)
If the header above contains a line with 'inDegrees', this indicates whether rotational values are in degrees (yes) or radians (no).

endheader
time	pelvis_tilt	pelvis_list	pelvis_rotation	pelvis_tx	pelvis_ty	pelvis_tz	hip_flexion_r	hip_adduction_r	hip_rotation_r	knee_angle_r	knee_angle_r_beta	ankle_angle_r	subtalar_angle_r	mtp_angle_r	hip_flexion_l	hip_adduction_l	hip_rotation_l	knee_angle_l	knee_angle_l_beta	ankle_angle_l	subtalar_angle_l	mtp_angle_l	L5_S1_Flex_Ext	L5_S1_Lat_Bending	L5_S1_axial_rotation	L4_L5_Flex_Ext	L4_L5_Lat_Bending	L4_L5_axial_rotation	L3_L4_Flex_Ext	L3_L4_Lat_Bending	L3_L4_axial_rotation	L2_L3_Flex_Ext	L2_L3_Lat_Bending	L2_L3_axial_rotation	L1_L2_Flex_Ext	L1_L2_Lat_Bending	L1_L2_axial_rotation	L1_T12_Flex_Ext	L1_T12_Lat_Bending	L1_T12_axial_rotation	Abs_r3	Abs_r2	Abs_r1	Abs_t1	Abs_t2	neck_flexion	neck_bending	neck_rotation	arm_flex_r	arm_add_r	arm_rot_r	elbow_flex_r	pro_sup_r	wrist_flex_r	wrist_dev_r	arm_flex_l	arm_add_l	arm_rot_l	elbow_flex_l	pro_sup_l	wrist_flex_l	wrist_dev_l
      0.91666667	      2.21370172	      6.68968365	     77.61341519	      0.23205556	      1.02556338	      0.31055575	     -3.30641272	     -0.60303784	      5.53435164	     22.29465779	      0.38911518	     36.01934093	     -0.20523425	      0.00000000	     -8.17864356	     -0.09113132	    -12.63586836	     17.35512164	      0.30290401	     40.20768871	     -1.07697187	      0.00000000	     -0.09543373	      0.03462350	      1.61830405	     -0.17722998	      0.04604925	      1.71944806	     -0.15678807	      0.08418357	      1.71944806	     -0.10907121	      0.08418357	      1.41601605	     -0.08861976	      0.07060424	      1.31487204	     -0.05453083	      0.05363180	      1.21372804	     -0.68167358	      0.39166793	      9.00052165	      0.00000000	      0.00000000	     -2.11618613	     -0.40800241	     -1.74557939	     -5.83168804	    -24.60651329	     47.01417474	    115.89425494	     89.41448198	     15.71178846	     15.12714810	    -43.57517056	    -47.50605002	     38.85427573	    108.15556801	     89.46673003	    -16.52634250	    -24.00557897
      0.93333333	      2.31035052	      6.50058045	     77.47124191	      0.23189532	      1.02549810	      0.31146706	     -2.92218729	     -0.45783024	      5.97411298	     22.52126791	      0.39307028	     35.93575642	     -0.43236992	      0.00000000	     -7.61550865	     -0.39855216	    -13.46655581	     18.16247039	      0.31699491	     40.49836386	     -0.48763344	      0.00000000	     -0.09580320	      0.07770564	      1.77669438	     -0.17791613	      0.10334850	      1.88773778	     -0.15739508	      0.18893349	      1.88773778	     -0.10949348	      0.18893349	      1.55460758	     -0.08896285	      0.15845734	      1.44356418	     -0.05474195	      0.12036603	      1.33252079	     -0.68431270	      0.87902173	      9.88144114	      0.00000000	      0.00000000	     -2.81973155	     -0.14262403	     -1.53037287	     -6.66763670	    -24.48031196	     45.87165312	    116.12384872	     89.41642148	     15.65286916	     15.38159001	    -40.42953046	    -48.45865872	     42.66383290	    108.20653459	     89.51579830	    -15.10790715	    -23.92483270
      0.95000000	      2.37296579	      6.23004415	     77.28869633	      0.23210113	      1.02555217	      0.31228385	     -2.61244689	     -0.30511566	      6.55768860	     22.40666999	      0.39107017	     35.72430430	     -0.67106203	      0.00000000	     -7.12523410	     -0.67784123	    -14.41056404	     18.64866140	      0.32548054	     40.65156370	      0.40271415	      0.00000000	     -0.07687471	      0.11293189	      1.93098199	     -0.14276402	      0.15019942	      2.05166837	     -0.12629746	      0.27458260	      2.05166837	     -0.08786011	      0.27458260	      1.68960924	     -0.07138586	      0.23029071	      1.56892287	     -0.04392621	      0.17493150	      1.44823649	     -0.54910836	      1.27750815	     10.73954255	      0.00000000	      0.00000000	     -3.56499268	      0.14540275	     -1.61365051	     -7.06046169	    -24.54233863	     45.29356513	    116.28483991	     89.40401152	     15.57100103	     15.62821596	    -37.63928055	    -49.17171528	     45.53192575	    108.18016546	     89.54421672	    -11.59969997	    -23.61434248
      0.96666667	      2.31555016	      5.92891957	     77.36542629	      0.23248290	      1.02554359	      0.31326852	     -2.27726729	     -0.17894351	      7.14439161	     22.27649406	      0.38879817	     35.52651077	     -1.23848608	      0.00000000	     -6.66394812	     -0.89230977	    -15.21956967	     18.86743531	      0.32929887	     40.76472037	      1.61735374	      0.00000000	     -0.05921099	      0.12619862	      2.01345398	     -0.10996074	      0.16784417	      2.13929486	     -0.09727774	      0.30683933	      2.13929486	     -0.06767225	      0.30683933	      1.76177224	     -0.05498333	      0.25734423	      1.63593136	     -0.03383316	      0.19548166	      1.51009049	     -0.42293821	      1.42758404	     11.19822702	      0.00000000	      0.00000000	     -4.15511847	      0.73420774	     -1.59743603	     -7.07303546	    -24.61020815	     45.24150937	    116.40041687	     89.38512396	     15.48736359	     15.86595459	    -36.00163517	    -49.45651291	     45.56289543	    108.35777394	     89.56642872	     -1.46042248	    -21.51806592
      0.98333333	      2.18927015	      5.46750577	     77.78518315	      0.23262579	      1.02491220	      0.31388475	     -1.96285390	     -0.04210504	      7.62679085	     21.86722098	      0.38165500	     35.36557751	     -1.99446382	      0.00000000	     -6.08278984	     -1.00683708	    -15.18724781	     18.86623758	      0.32927796	     40.90479982	      2.34404250	      0.00000000	     -0.03795981	      0.09808248	      1.92377577	     -0.07049517	      0.13044970	      2.04401175	     -0.06236418	      0.23847774	      2.04401175	     -0.04338427	      0.23847774	      1.68330380	     -0.03524948	      0.20000979	      1.56306781	     -0.02169024	      0.15192976	      1.44283182	     -0.27114314	      1.10952861	     10.69946368	      0.00000000	      0.00000000	     -4.02028548	      1.65411778	     -2.76524419	     -6.50283364	    -24.83214833	     46.13952578	    116.68328865	     89.35565366	     15.04553457	     15.78767932	    -35.80639717	    -44.18237644	     33.71832535	    113.97507933	     89.22383812	     54.88359345	     28.38350245
      1.00000000	      2.04558097	      4.90285355	     78.04799847	      0.23247119	      1.02456931	      0.31489694	     -1.55723403	     -0.04120367	      7.69290129	     21.29910667	      0.37173954	     35.24596308	     -1.99099821	      0.00000000	     -5.52596178	     -0.96731663	    -14.98247185	     18.48633648	      0.32264744	     40.77549508	      2.52932925	      0.00000000	     -0.02956921	      0.10383170	      1.90876298	     -0.05491297	      0.13809616	      2.02806067	     -0.04857925	      0.25245639	      2.02806067	     -0.03379465	      0.25245639	      1.67016761	     -0.02745797	      0.21173360	      1.55086992	     -0.01689584	      0.16083530	      1.43157223	     -0.21120989	      1.17456492	     10.61596706	      0.00000000	      0.00000000	     -3.62730564	      1.98454325	     -3.41180632	     -6.19798299	    -25.13504473	     46.66826414	    117.18777193	     89.33145116	     15.03315010	     15.87363138	    -35.40306314	    -44.00010127	     33.97832589	    114.23962588	     89.21666023	     54.70881479	     28.15945355
      1.01666667	      2.05576160	      4.25392864	     79.03562473	      0.23151501	      1.02432657	      0.31591942	     -1.34273205	      0.23860124	      7.54457309	     20.32519452	      0.35474157	     34.75427148	     -2.88918974	      0.00000000	     -4.80674889	     -1.11260515	    -13.73000608	     18.12470069	      0.31633570	     40.52243574	      2.03338062	      0.00000000	     -0.04724308	      0.12225741	      1.84703447	     -0.08773512	      0.16260236	      1.96247413	     -0.07761565	      0.29725667	      1.96247413	     -0.05399411	      0.29725667	      1.61615516	     -0.04386992	      0.24930732	      1.50071551	     -0.02699469	      0.18937673	      1.38527585	     -0.33745257	      1.38300030	     10.27265162	      0.00000000	      0.00000000	     -3.02331581	      1.80780685	     -6.06727535	     -6.39801444	    -25.52669396	     46.89163782	    118.09541167	     89.27945128	     13.42535002	     15.89447959	    -34.30451980	    -44.87020709	     35.43942931	    114.51472800	     89.24171536	     51.38898957	     26.04634828
      1.03333333	      1.97695914	      3.38209976	     79.53621587	      0.23102575	      1.02397487	      0.31678517	     -0.84288335	      0.35858241	      7.37691426	     19.33116589	      0.33739249	     34.35924837	     -3.17221018	      0.00000000	     -4.09523947	     -1.15572136	    -13.41240371	     17.39475896	      0.30359582	     40.04988408	      2.06222330	      0.00000000	     -0.06693775	      0.13997154	      1.77721625	     -0.12431010	      0.18616214	      1.88829227	     -0.10997204	      0.34032679	      1.88829227	     -0.07650316	      0.34032679	      1.55506422	     -0.06215840	      0.28542996	      1.44398820	     -0.03824823	      0.21681591	      1.33291219	     -0.47812968	      1.58338601	      9.88434362	      0.00000000	      0.00000000	     -2.19110981	      1.76779480	     -8.18515846	     -6.45019615	    -25.89791494	     47.09642338	    119.16902970	     89.21127673	     12.88993936	     16.17929172	    -34.49729940	    -44.84933768	     35.16869703	    114.71944107	     89.23817540	     50.96816436	     25.89402061
      1.05000000	      1.89534710	      2.38897097	     80.33518489	      0.23003494	      1.02382795	      0.31792646	     -0.25078808	      0.53324407	      7.20242597	     18.23536614	      0.31826718	     33.63360428	     -4.09953992	      0.00000000	     -3.21840958	     -1.15331635	    -12.34033496	     16.62248301	      0.29011706	     39.20279404	      1.53162848	      0.00000000	     -0.10500459	      0.16938547	      1.64613069	     -0.19500402	      0.22528267	      1.74901386	     -0.17251204	      0.41184383	      1.74901386	     -0.12000974	      0.41184383	      1.44036435	     -0.09750726	      0.34541085	      1.33748118	     -0.05999962	      0.26237809	      1.23459802	     -0.75003727	      1.91612230	      9.15528505	      0.00000000	      0.00000000	     -1.35127236	      1.46832576	    -10.10707619	     -6.54138886	    -26.41656554	     47.31837378	    120.38282673	     89.11650280	     11.01339318	     16.03860603	    -34.70504252	    -44.96371775	     34.85234538	    114.86467297	     89.22955764	     50.62851316	     26.00545970
      1.06666667	      1.84427138	      1.30211553	     80.88428579	      0.22927205	      1.02389253	      0.31922560	      0.45458256	      0.69107124	      6.98210894	     17.08439191	      0.29817889	     32.76313880	     -4.71214556	      0.00000000	     -2.37979222	     -1.17909050	    -11.72071246	     15.63542861	      0.27288971	     38.22598746	      1.48594917	      0.00000000	     -0.14276940	      0.20954271	      1.52746263	     -0.26513705	      0.27869181	      1.62292905	     -0.23455585	      0.50948215	      1.62292905	     -0.16317115	      0.50948215	      1.33652980	     -0.13257566	      0.42729950	      1.24106339	     -0.08157844	      0.32458166	      1.14559698	     -1.01978755	      2.37038906	      8.49528893	      0.00000000	      0.00000000	     -0.77995828	      1.16724243	    -11.67301407	     -6.66573922	    -26.91479928	     47.25715069	    121.63524233	     88.97144140	      9.06428040	     16.06509863	    -35.34734035	    -44.91449797	     34.01165414	    114.98393635	     89.22277379	     51.11968252	     26.46747118
